<svg width="100%" height="100%" viewBox="0 0 284 249" style="fill-rule:evenodd;clip-rule:evenodd;stroke-linejoin:round;stroke-miterlimit:2;">
    <g transform="matrix(17.7165,0,0,17.7165,0,-17.7165)">
        <path d="M1.5,2.75C1.5,2.613 1.613,2.5 1.75,2.5L10.25,2.5C10.387,2.5 10.5,2.613 10.5,2.75L10.5,8.25C10.5,8.387 10.387,8.5 10.25,8.5L6.75,8.5C6.551,8.5 6.36,8.579 6.22,8.72L3.5,11.44L3.5,9.25C3.5,8.839 3.161,8.5 2.75,8.5L1.75,8.5C1.613,8.5 1.5,8.387 1.5,8.25L1.5,2.75ZM1.75,1C0.79,1 -0,1.79 0,2.75L0,8.25C0,9.216 0.784,10 1.75,10L2,10L2,11.543C2,12.342 2.658,12.999 3.457,12.999C3.843,12.999 4.214,12.846 4.487,12.573L7.061,10L10.25,10C11.21,10 12,9.21 12,8.25L12,2.75C12,1.79 11.21,1 10.25,1L1.75,1ZM14.5,4.75C14.5,4.613 14.387,4.5 14.25,4.5L13.75,4.5C13.339,4.5 13,4.161 13,3.75C13,3.339 13.339,3 13.75,3L14.25,3C15.216,3 16,3.784 16,4.75L16,10.25C16,11.21 15.21,12 14.25,12L14,12L14,13.543C14,14.342 13.342,14.999 12.543,14.999C12.157,14.999 11.786,14.846 11.513,14.573L9.22,12.28C9.068,12.138 8.981,11.939 8.981,11.731C8.981,11.32 9.32,10.981 9.731,10.981C9.939,10.981 10.138,11.068 10.28,11.22L12.5,13.44L12.5,11.25C12.5,10.839 12.839,10.5 13.25,10.5L14.25,10.5C14.387,10.5 14.5,10.387 14.5,10.25L14.5,4.75Z"/>
    </g>
</svg>